<mxfile host="app.diagrams.net" agent="Mozilla/5.0 (Windows NT 10.0; Win64; x64) AppleWebKit/537.36 (KHTML, like Gecko) Chrome/137.0.0.0 Safari/537.36 Edg/137.0.0.0" version="26.1.1">
  <diagram name="Page-1" id="AviMAQd1qebJfLuoy3Sa">
    <mxGraphModel dx="1589" dy="736" grid="1" gridSize="10" guides="1" tooltips="1" connect="1" arrows="1" fold="1" page="1" pageScale="1" pageWidth="1169" pageHeight="1654" math="0" shadow="0">
      <root>
        <mxCell id="0" />
        <mxCell id="1" parent="0" />
        <mxCell id="KD0k9DSHvo9DcOj4se66-1" value="" style="rounded=1;whiteSpace=wrap;html=1;" vertex="1" parent="1">
          <mxGeometry x="250" y="30" width="470" height="770" as="geometry" />
        </mxCell>
        <mxCell id="KD0k9DSHvo9DcOj4se66-2" value="&lt;font style=&quot;font-size: 14px;&quot;&gt;HỆ THỐNG QUẢN LÝ DỮ LIỆU VÀ LẬP THỜI KHÓA BIỂU TỰ ĐỘNG CHO TRƯỜNG ĐẠI HỌC&amp;nbsp;&lt;/font&gt;" style="text;html=1;align=center;verticalAlign=middle;whiteSpace=wrap;rounded=0;" vertex="1" parent="1">
          <mxGeometry x="310" y="60" width="350" height="30" as="geometry" />
        </mxCell>
        <mxCell id="KD0k9DSHvo9DcOj4se66-3" value="&lt;font size=&quot;3&quot;&gt;Đăng ký tài khoản&lt;/font&gt;" style="ellipse;whiteSpace=wrap;html=1;" vertex="1" parent="1">
          <mxGeometry x="280" y="210" width="140" height="90" as="geometry" />
        </mxCell>
        <mxCell id="KD0k9DSHvo9DcOj4se66-4" value="&lt;font size=&quot;3&quot;&gt;Đăng nhập/Đăng xuất&lt;/font&gt;" style="ellipse;whiteSpace=wrap;html=1;" vertex="1" parent="1">
          <mxGeometry x="280" y="320" width="140" height="90" as="geometry" />
        </mxCell>
        <mxCell id="KD0k9DSHvo9DcOj4se66-5" value="&lt;font size=&quot;3&quot;&gt;Quản lý tài khoản cá nhân&lt;/font&gt;" style="ellipse;whiteSpace=wrap;html=1;" vertex="1" parent="1">
          <mxGeometry x="280" y="440" width="140" height="90" as="geometry" />
        </mxCell>
        <mxCell id="KD0k9DSHvo9DcOj4se66-7" value="&lt;font size=&quot;3&quot;&gt;Quản lý đăng ký học phần sinh viên&lt;/font&gt;" style="ellipse;whiteSpace=wrap;html=1;" vertex="1" parent="1">
          <mxGeometry x="280" y="550" width="140" height="90" as="geometry" />
        </mxCell>
        <mxCell id="KD0k9DSHvo9DcOj4se66-8" value="&lt;font size=&quot;3&quot;&gt;Quản lý, thiết lập học kỳ&lt;/font&gt;" style="ellipse;whiteSpace=wrap;html=1;" vertex="1" parent="1">
          <mxGeometry x="520" y="210" width="140" height="90" as="geometry" />
        </mxCell>
        <mxCell id="KD0k9DSHvo9DcOj4se66-10" value="&lt;font size=&quot;3&quot;&gt;Quản lý phòng học&lt;/font&gt;" style="ellipse;whiteSpace=wrap;html=1;" vertex="1" parent="1">
          <mxGeometry x="515" y="550" width="140" height="90" as="geometry" />
        </mxCell>
        <mxCell id="KD0k9DSHvo9DcOj4se66-11" value="&lt;font size=&quot;3&quot;&gt;Quản lý tiết học&lt;/font&gt;" style="ellipse;whiteSpace=wrap;html=1;" vertex="1" parent="1">
          <mxGeometry x="515" y="440" width="140" height="90" as="geometry" />
        </mxCell>
        <mxCell id="KD0k9DSHvo9DcOj4se66-13" value="&lt;font size=&quot;3&quot;&gt;Quản lý môn học&lt;/font&gt;" style="ellipse;whiteSpace=wrap;html=1;" vertex="1" parent="1">
          <mxGeometry x="280" y="660" width="140" height="90" as="geometry" />
        </mxCell>
        <mxCell id="KD0k9DSHvo9DcOj4se66-16" value="&lt;font size=&quot;3&quot;&gt;Quản lý thời khóa biểu tự động&lt;/font&gt;" style="ellipse;whiteSpace=wrap;html=1;" vertex="1" parent="1">
          <mxGeometry x="520" y="320" width="140" height="90" as="geometry" />
        </mxCell>
        <mxCell id="KD0k9DSHvo9DcOj4se66-17" value="&lt;font size=&quot;3&quot;&gt;Quản lý tài khoản người dùng&lt;/font&gt;" style="ellipse;whiteSpace=wrap;html=1;" vertex="1" parent="1">
          <mxGeometry x="515" y="660" width="140" height="90" as="geometry" />
        </mxCell>
        <mxCell id="KD0k9DSHvo9DcOj4se66-18" value="Sinh viên" style="shape=umlActor;verticalLabelPosition=bottom;verticalAlign=top;html=1;outlineConnect=0;" vertex="1" parent="1">
          <mxGeometry x="160" y="120" width="40" height="70" as="geometry" />
        </mxCell>
        <mxCell id="KD0k9DSHvo9DcOj4se66-28" style="edgeStyle=orthogonalEdgeStyle;rounded=0;orthogonalLoop=1;jettySize=auto;html=1;exitX=0.5;exitY=0;exitDx=0;exitDy=0;exitPerimeter=0;endArrow=block;endFill=0;" edge="1" parent="1" source="KD0k9DSHvo9DcOj4se66-23">
          <mxGeometry relative="1" as="geometry">
            <mxPoint x="180" y="490" as="targetPoint" />
          </mxGeometry>
        </mxCell>
        <mxCell id="KD0k9DSHvo9DcOj4se66-23" value="Quản trị viên" style="shape=umlActor;verticalLabelPosition=bottom;verticalAlign=top;html=1;outlineConnect=0;" vertex="1" parent="1">
          <mxGeometry x="160" y="560" width="40" height="70" as="geometry" />
        </mxCell>
        <mxCell id="KD0k9DSHvo9DcOj4se66-32" value="" style="endArrow=classic;html=1;rounded=0;entryX=0;entryY=0.5;entryDx=0;entryDy=0;" edge="1" parent="1" target="KD0k9DSHvo9DcOj4se66-3">
          <mxGeometry width="50" height="50" relative="1" as="geometry">
            <mxPoint x="210" y="350" as="sourcePoint" />
            <mxPoint x="600" y="460" as="targetPoint" />
          </mxGeometry>
        </mxCell>
        <mxCell id="KD0k9DSHvo9DcOj4se66-33" value="" style="endArrow=classic;html=1;rounded=0;entryX=0;entryY=0.5;entryDx=0;entryDy=0;" edge="1" parent="1" target="KD0k9DSHvo9DcOj4se66-4">
          <mxGeometry width="50" height="50" relative="1" as="geometry">
            <mxPoint x="210" y="365" as="sourcePoint" />
            <mxPoint x="600" y="460" as="targetPoint" />
          </mxGeometry>
        </mxCell>
        <mxCell id="KD0k9DSHvo9DcOj4se66-34" value="" style="endArrow=classic;html=1;rounded=0;entryX=0;entryY=0.5;entryDx=0;entryDy=0;" edge="1" parent="1" target="KD0k9DSHvo9DcOj4se66-5">
          <mxGeometry width="50" height="50" relative="1" as="geometry">
            <mxPoint x="210" y="380" as="sourcePoint" />
            <mxPoint x="600" y="460" as="targetPoint" />
          </mxGeometry>
        </mxCell>
        <mxCell id="KD0k9DSHvo9DcOj4se66-35" value="" style="endArrow=classic;html=1;rounded=0;entryX=0;entryY=0.5;entryDx=0;entryDy=0;" edge="1" parent="1" target="KD0k9DSHvo9DcOj4se66-7">
          <mxGeometry width="50" height="50" relative="1" as="geometry">
            <mxPoint x="210" y="400" as="sourcePoint" />
            <mxPoint x="600" y="460" as="targetPoint" />
          </mxGeometry>
        </mxCell>
        <mxCell id="KD0k9DSHvo9DcOj4se66-36" value="" style="endArrow=classic;html=1;rounded=0;entryX=0;entryY=0.5;entryDx=0;entryDy=0;" edge="1" parent="1" target="KD0k9DSHvo9DcOj4se66-13">
          <mxGeometry width="50" height="50" relative="1" as="geometry">
            <mxPoint x="210" y="430" as="sourcePoint" />
            <mxPoint x="600" y="460" as="targetPoint" />
          </mxGeometry>
        </mxCell>
        <mxCell id="KD0k9DSHvo9DcOj4se66-56" style="edgeStyle=orthogonalEdgeStyle;rounded=0;orthogonalLoop=1;jettySize=auto;html=1;exitX=0.5;exitY=0;exitDx=0;exitDy=0;exitPerimeter=0;endArrow=block;endFill=0;" edge="1" parent="1">
          <mxGeometry relative="1" as="geometry">
            <mxPoint x="800" y="410" as="targetPoint" />
            <mxPoint x="800" y="320" as="sourcePoint" />
          </mxGeometry>
        </mxCell>
        <mxCell id="KD0k9DSHvo9DcOj4se66-38" value="giáo vụ" style="shape=umlActor;verticalLabelPosition=bottom;verticalAlign=top;html=1;outlineConnect=0;" vertex="1" parent="1">
          <mxGeometry x="780" y="210" width="40" height="70" as="geometry" />
        </mxCell>
        <mxCell id="KD0k9DSHvo9DcOj4se66-41" value="sinh viên" style="shape=umlActor;verticalLabelPosition=bottom;verticalAlign=top;html=1;outlineConnect=0;" vertex="1" parent="1">
          <mxGeometry x="780" y="420" width="40" height="70" as="geometry" />
        </mxCell>
        <mxCell id="KD0k9DSHvo9DcOj4se66-55" style="edgeStyle=orthogonalEdgeStyle;rounded=0;orthogonalLoop=1;jettySize=auto;html=1;exitX=0.5;exitY=0;exitDx=0;exitDy=0;exitPerimeter=0;endArrow=block;endFill=0;" edge="1" parent="1" source="KD0k9DSHvo9DcOj4se66-44">
          <mxGeometry relative="1" as="geometry">
            <mxPoint x="800" y="530" as="targetPoint" />
          </mxGeometry>
        </mxCell>
        <mxCell id="KD0k9DSHvo9DcOj4se66-44" value="&lt;div&gt;&lt;div&gt;Quản trị viên&lt;/div&gt;&lt;/div&gt;" style="shape=umlActor;verticalLabelPosition=bottom;verticalAlign=top;html=1;outlineConnect=0;" vertex="1" parent="1">
          <mxGeometry x="780" y="650" width="40" height="70" as="geometry" />
        </mxCell>
        <mxCell id="KD0k9DSHvo9DcOj4se66-45" value="" style="endArrow=classic;html=1;rounded=0;entryX=1;entryY=0.5;entryDx=0;entryDy=0;" edge="1" parent="1" target="KD0k9DSHvo9DcOj4se66-8">
          <mxGeometry width="50" height="50" relative="1" as="geometry">
            <mxPoint x="770" y="255" as="sourcePoint" />
            <mxPoint x="629.9999999999955" y="255" as="targetPoint" />
          </mxGeometry>
        </mxCell>
        <mxCell id="KD0k9DSHvo9DcOj4se66-46" value="" style="endArrow=classic;html=1;rounded=0;entryX=1;entryY=0.5;entryDx=0;entryDy=0;" edge="1" parent="1" target="KD0k9DSHvo9DcOj4se66-16">
          <mxGeometry width="50" height="50" relative="1" as="geometry">
            <mxPoint x="770" y="420" as="sourcePoint" />
            <mxPoint x="600" y="460" as="targetPoint" />
          </mxGeometry>
        </mxCell>
        <mxCell id="KD0k9DSHvo9DcOj4se66-47" value="" style="endArrow=classic;html=1;rounded=0;entryX=1.019;entryY=0.399;entryDx=0;entryDy=0;entryPerimeter=0;" edge="1" parent="1" target="KD0k9DSHvo9DcOj4se66-11">
          <mxGeometry width="50" height="50" relative="1" as="geometry">
            <mxPoint x="770" y="476" as="sourcePoint" />
            <mxPoint x="600" y="460" as="targetPoint" />
          </mxGeometry>
        </mxCell>
        <mxCell id="KD0k9DSHvo9DcOj4se66-48" value="" style="endArrow=classic;html=1;rounded=0;entryX=1;entryY=0.5;entryDx=0;entryDy=0;" edge="1" parent="1" target="KD0k9DSHvo9DcOj4se66-10">
          <mxGeometry width="50" height="50" relative="1" as="geometry">
            <mxPoint x="770" y="520" as="sourcePoint" />
            <mxPoint x="600" y="460" as="targetPoint" />
          </mxGeometry>
        </mxCell>
        <mxCell id="KD0k9DSHvo9DcOj4se66-50" value="" style="endArrow=classic;html=1;rounded=0;entryX=1;entryY=0.5;entryDx=0;entryDy=0;" edge="1" parent="1" target="KD0k9DSHvo9DcOj4se66-17">
          <mxGeometry width="50" height="50" relative="1" as="geometry">
            <mxPoint x="760" y="705" as="sourcePoint" />
            <mxPoint x="600" y="460" as="targetPoint" />
          </mxGeometry>
        </mxCell>
        <mxCell id="KD0k9DSHvo9DcOj4se66-61" value="&lt;font size=&quot;3&quot;&gt;Đăng ký học phần&lt;/font&gt;" style="ellipse;whiteSpace=wrap;html=1;" vertex="1" parent="1">
          <mxGeometry x="280" y="110" width="140" height="90" as="geometry" />
        </mxCell>
        <mxCell id="KD0k9DSHvo9DcOj4se66-62" value="Sinh viên,&lt;br&gt;giáo vụ" style="shape=umlActor;verticalLabelPosition=bottom;verticalAlign=top;html=1;outlineConnect=0;" vertex="1" parent="1">
          <mxGeometry x="160" y="370" width="40" height="70" as="geometry" />
        </mxCell>
        <mxCell id="KD0k9DSHvo9DcOj4se66-64" value="" style="endArrow=classic;html=1;rounded=0;entryX=0;entryY=0.5;entryDx=0;entryDy=0;" edge="1" parent="1" source="KD0k9DSHvo9DcOj4se66-18" target="KD0k9DSHvo9DcOj4se66-61">
          <mxGeometry width="50" height="50" relative="1" as="geometry">
            <mxPoint x="210" y="180" as="sourcePoint" />
            <mxPoint x="290" y="265" as="targetPoint" />
          </mxGeometry>
        </mxCell>
        <mxCell id="KD0k9DSHvo9DcOj4se66-65" value="&lt;font size=&quot;3&quot;&gt;Tạo thời khóa biểu tự động&lt;/font&gt;" style="ellipse;whiteSpace=wrap;html=1;" vertex="1" parent="1">
          <mxGeometry x="515" y="100" width="140" height="90" as="geometry" />
        </mxCell>
        <mxCell id="KD0k9DSHvo9DcOj4se66-66" value="" style="endArrow=classic;html=1;rounded=0;entryX=0.961;entryY=0.648;entryDx=0;entryDy=0;entryPerimeter=0;" edge="1" parent="1" target="KD0k9DSHvo9DcOj4se66-65">
          <mxGeometry width="50" height="50" relative="1" as="geometry">
            <mxPoint x="760" y="230" as="sourcePoint" />
            <mxPoint x="440" y="400" as="targetPoint" />
          </mxGeometry>
        </mxCell>
      </root>
    </mxGraphModel>
  </diagram>
</mxfile>
